<?xml version="1.0" standalone="no"?>
<!DOCTYPE svg PUBLIC "-//W3C//DTD SVG 20010904//EN"
 "http://www.w3.org/TR/2001/REC-SVG-20010904/DTD/svg10.dtd">
<svg version="1.0" xmlns="http://www.w3.org/2000/svg"
 width="1024.000000pt" height="1024.000000pt" viewBox="0 0 1024.000000 1024.000000"
 preserveAspectRatio="xMidYMid meet">
<metadata>
Created by potrace 1.16, written by Peter Selinger 2001-2019
</metadata>
<g transform="translate(0.000000,1024.000000) scale(0.100000,-0.100000)"
fill="#FFFFFF" stroke="none">
<path d="M9528 5478 c2 -1674 -1 -2338 -9 -2377 -8 -42 -20 -62 -53 -95 -23
-22 -28 -30 -11 -16 28 23 27 22 -5 -13 -19 -20 -40 -35 -48 -32 -8 3 -10 0
-6 -7 5 -8 2 -9 -9 -5 -10 3 -17 3 -17 -2 0 -4 -8 -9 -17 -11 -10 -2 -1919 -4
-4243 -4 -4005 -1 -4227 0 -4259 17 -53 27 -50 20 8 -18 32 -22 70 -37 98 -41
24 -2 354 -6 733 -7 429 -1 686 -5 683 -11 -4 -5 -1 -6 8 -1 7 5 104 9 214 10
111 1 207 5 214 10 10 5 12 4 7 -3 -5 -8 6 -10 36 -6 24 3 49 7 56 9 7 3 11 1
8 -3 -2 -4 513 -7 1145 -7 632 1 1149 -3 1149 -8 0 -4 6 -5 13 0 16 10 1027
10 1027 0 0 -5 5 -5 11 -1 21 12 653 13 661 0 5 -7 8 -7 8 0 0 6 14 9 33 6 17
-2 52 -3 77 -2 186 5 400 4 400 -2 0 -4 10 -4 23 0 12 4 38 6 57 5 49 -4 190
-3 223 1 15 2 27 -2 27 -8 0 -8 2 -8 8 0 8 12 103 11 123 -2 8 -4 9 -3 5 4 -4
7 -3 12 3 12 5 0 13 -5 16 -10 4 -6 10 -8 15 -5 5 3 73 5 152 5 79 0 248 0
375 -1 128 0 238 3 244 7 8 5 9 3 4 -6 -6 -10 -4 -12 11 -6 17 7 327 9 384 2
14 -1 33 2 43 6 10 5 17 5 17 -1 0 -11 71 -8 90 4 9 6 11 4 5 -5 -6 -9 -4 -11
4 -5 7 4 34 9 59 11 25 2 60 10 77 18 29 14 103 76 90 76 -3 0 2 12 12 27 9
14 18 31 20 37 1 6 6 27 10 46 11 45 7 4642 -4 4693 -4 21 -7 -1008 -5 -2285z"/>
<path d="M1012 7737 c-12 -7 -30 -24 -40 -37 -16 -24 -17 -153 -20 -2228 -1
-1267 2 -2217 7 -2235 5 -19 9 863 10 2171 1 1713 4 2208 13 2225 7 12 12 24
11 27 -1 3 15 17 34 30 l37 25 2797 1 c1971 0 2796 -3 2792 -10 -5 -8 -3 -8 8
0 10 7 411 10 1298 8 l1285 -2 18 -22 c10 -12 18 -17 18 -12 0 6 -11 24 -24
39 l-24 28 -4099 2 c-3274 2 -4103 0 -4121 -10z"/>
<path d="M7650 7293 c-32 -5 -120 -33 -120 -38 0 -3 18 -32 40 -66 22 -34 40
-67 40 -72 0 -6 3 -8 6 -5 3 3 -6 29 -20 57 -26 50 -26 50 -5 61 34 19 59 22
179 26 73 2 136 -2 173 -11 31 -7 57 -11 57 -8 0 3 7 0 15 -7 8 -7 15 -9 15
-6 0 4 10 1 23 -6 12 -7 27 -12 32 -13 20 -2 65 -28 65 -38 0 -6 3 -7 6 -4 9
9 80 -46 138 -107 26 -28 39 -37 28 -21 -52 77 -171 168 -277 212 -97 41 -290
64 -395 46z"/>
<path d="M6918 7275 c-184 -46 -304 -180 -331 -369 -12 -86 -1 -197 27 -256 9
-19 14 -26 10 -15 -32 110 -32 249 -1 325 25 60 100 168 123 177 8 3 27 17 43
32 30 28 141 71 206 79 189 24 349 -25 425 -130 17 -22 30 -36 30 -30 0 6 -23
36 -51 66 -37 41 -73 67 -128 93 -71 35 -83 37 -186 40 -72 2 -130 -2 -167
-12z"/>
<path d="M1797 7253 c-16 -4 -17 -23 -15 -251 l3 -247 25 -2 c14 -1 18 0 8 3
-16 5 -18 23 -18 202 0 108 3 206 6 218 7 27 73 46 155 43 80 -3 97 -9 139
-51 l34 -33 -18 30 c-26 45 -75 74 -142 85 -60 10 -145 11 -177 3z"/>
<path d="M2438 7043 c5 -97 -9 -166 -51 -246 -73 -139 -207 -197 -461 -201
l-141 -2 -3 -140 c-3 -124 -1 -143 15 -160 10 -11 15 -15 11 -10 -5 6 -8 62
-8 126 0 151 -5 147 165 154 143 5 208 17 272 46 24 11 48 20 53 20 6 0 8 5 5
10 -3 6 0 10 8 10 32 0 115 117 124 175 3 17 8 35 13 40 10 13 11 214 1 240
-4 11 -6 -16 -3 -62z"/>
<path d="M5482 6963 l-2 -73 -120 0 -120 0 0 -247 c0 -237 7 -314 31 -329 8
-4 7 0 0 14 -7 13 -11 101 -11 246 0 183 3 227 15 239 8 8 12 17 10 19 -3 3 1
5 8 6 6 0 30 5 52 11 22 6 59 11 81 11 57 0 66 14 61 102 l-3 73 -2 -72z"/>
<path d="M3217 6963 c-4 -3 -7 -46 -7 -94 0 -48 -3 -90 -7 -92 -5 -3 -37 -6
-72 -8 l-64 -4 -11 32 c-6 17 -14 35 -18 38 -14 15 -77 -7 -122 -41 l-46 -35
0 -233 c0 -207 2 -235 17 -247 14 -12 16 -12 8 0 -5 8 -8 103 -6 210 2 177 4
199 23 233 12 20 26 39 32 42 6 2 28 11 48 20 37 16 38 15 62 -10 20 -23 33
-27 80 -28 77 -1 83 8 89 127 2 53 3 97 2 97 -1 0 -5 -3 -8 -7z"/>
<path d="M3577 5405 c-106 -27 -157 -132 -157 -320 0 -93 14 -173 35 -201 10
-14 10 -7 -2 26 -24 65 -23 243 0 288 10 17 15 32 11 32 -9 0 38 74 53 83 7 4
23 18 36 30 27 26 35 28 105 28 57 0 75 -9 104 -56 21 -35 24 -26 4 13 -37 70
-105 98 -189 77z"/>
<path d="M6661 5178 c-1 -53 -4 -103 -7 -112 -5 -14 -40 -16 -281 -16 l-276 0
6 -54 c3 -29 15 -72 26 -95 28 -55 35 -52 10 4 -22 49 -18 90 10 104 14 8 218
17 246 12 28 -6 229 1 249 9 22 8 25 17 31 82 3 40 2 93 -3 118 -9 40 -10 35
-11 -52z"/>
<path d="M4056 5217 c12 -89 5 -222 -17 -292 -62 -202 -201 -297 -433 -296
-140 1 -222 29 -310 109 l-51 46 50 -53 c46 -50 139 -104 199 -117 12 -3 32
-7 46 -11 37 -8 179 -7 220 1 55 11 139 55 182 94 35 32 94 121 98 147 1 6 6
17 10 25 25 46 32 294 11 355 -11 29 -11 29 -5 -8z"/>
<path d="M7424 4922 c0 -134 -83 -248 -207 -284 -48 -13 -225 -16 -342 -6 -75
7 -79 4 -20 -18 70 -25 254 -33 339 -14 22 5 44 7 48 4 4 -3 8 0 8 5 0 6 3 10
8 9 20 -6 97 48 125 88 18 25 32 49 33 52 0 4 6 25 12 47 13 44 15 139 3 168
-4 11 -7 -12 -7 -51z"/>
<path d="M6634 4759 c5 -22 -2 -29 -62 -62 -92 -49 -167 -67 -286 -67 -122 0
-215 25 -282 76 -25 19 -48 34 -50 31 -4 -4 55 -52 96 -79 14 -8 53 -24 88
-34 34 -10 62 -21 62 -25 0 -3 55 -5 123 -4 135 3 197 18 262 63 54 38 73 72
57 103 l-12 24 4 -26z"/>
<path d="M1932 4698 l-2 -58 -277 0 c-223 -1 -274 -3 -258 -13 35 -21 519 -27
540 -6 3 4 4 35 2 70 l-3 64 -2 -57z"/>
<path d="M4610 4680 l0 -40 -245 0 c-232 0 -302 -9 -203 -25 70 -12 413 -9
437 4 17 9 21 21 21 56 0 25 -2 45 -5 45 -3 0 -5 -18 -5 -40z"/>
<path d="M6885 4281 c-42 -19 -94 -71 -119 -119 -43 -83 -47 -296 -8 -385 11
-26 23 -47 27 -47 3 0 -1 13 -9 29 -23 43 -37 148 -30 219 4 34 10 62 13 62 4
0 8 12 9 26 3 35 47 108 85 140 39 33 70 45 132 51 27 2 51 6 53 8 2 2 21 -3
43 -10 40 -15 42 -15 59 -15 5 0 23 -19 40 -42 37 -50 40 -38 4 16 -53 78
-202 111 -299 67z"/>
<path d="M8678 4158 c-3 -51 -4 -53 -34 -56 l-30 -3 0 -87 c1 -115 -19 -170
-81 -217 -61 -47 -128 -65 -235 -65 -86 0 -89 -1 -100 -26 -11 -22 -10 -28 7
-40 10 -8 26 -14 34 -14 14 0 14 1 1 10 -30 19 7 31 111 36 130 7 186 30 234
99 34 47 42 79 50 199 3 48 9 64 30 83 21 20 25 33 25 78 0 70 -8 71 -12 3z"/>
<path d="M8005 4123 c-3 -27 -7 -55 -8 -63 -2 -11 -17 -15 -57 -16 -84 -2 -84
-2 -134 -39 l-46 -36 0 -164 c0 -91 3 -165 8 -165 4 0 6 51 5 112 -3 139 -1
149 41 193 42 43 78 58 132 56 24 -2 45 3 52 12 12 14 29 157 19 157 -3 0 -9
-21 -12 -47z"/>
<path d="M7420 4148 c0 -2 7 -28 15 -58 55 -206 -53 -445 -243 -537 -69 -33
-87 -38 -173 -41 -152 -7 -258 27 -357 112 l-47 40 44 -47 c86 -90 216 -139
364 -139 107 1 115 2 183 34 97 46 215 185 239 283 14 60 15 72 16 160 0 79
-22 195 -36 195 -3 0 -5 -1 -5 -2z"/>
<path d="M8665 3483 c16 -59 -42 -156 -116 -194 -121 -61 -333 -64 -451 -6
-26 13 -43 18 -38 12 17 -21 122 -63 175 -71 193 -28 368 19 421 114 26 45 32
124 13 152 -8 12 -9 10 -4 -7z"/>
</g>
</svg>