<?xml version="1.0" standalone="no"?>
<!DOCTYPE svg PUBLIC "-//W3C//DTD SVG 20010904//EN"
 "http://www.w3.org/TR/2001/REC-SVG-20010904/DTD/svg10.dtd">
<svg version="1.0" xmlns="http://www.w3.org/2000/svg"
 width="1024.000000pt" height="1024.000000pt" viewBox="0 0 1024.000000 1024.000000"
 preserveAspectRatio="xMidYMid meet">
<metadata>
Created by potrace 1.16, written by Peter Selinger 2001-2019
</metadata>
<g transform="translate(0.000000,1024.000000) scale(0.100000,-0.100000)"
fill="#e5e7eb" stroke="none">
<path d="M9528 5478 c2 -1674 -1 -2338 -9 -2377 -8 -42 -20 -62 -53 -95 -23
-22 -28 -30 -11 -16 28 23 27 22 -5 -13 -19 -20 -40 -35 -48 -32 -8 3 -10 0
-6 -7 5 -8 2 -9 -9 -5 -10 3 -17 3 -17 -2 0 -4 -8 -9 -17 -11 -10 -2 -1919 -4
-4243 -4 -4005 -1 -4227 0 -4259 17 -53 27 -50 20 8 -18 32 -22 70 -37 98 -41
24 -2 354 -6 733 -7 429 -1 686 -5 683 -11 -4 -5 -1 -6 8 -1 7 5 104 9 214 10
111 1 207 5 214 10 10 5 12 4 7 -3 -5 -8 6 -10 36 -6 24 3 49 7 56 9 7 3 11 1
8 -3 -2 -4 513 -7 1145 -7 632 1 1149 -3 1149 -8 0 -4 6 -5 13 0 16 10 1027
10 1027 0 0 -5 5 -5 11 -1 21 12 653 13 661 0 5 -7 8 -7 8 0 0 6 14 9 33 6 17
-2 52 -3 77 -2 186 5 400 4 400 -2 0 -4 10 -4 23 0 12 4 38 6 57 5 49 -4 190
-3 223 1 15 2 27 -2 27 -8 0 -8 2 -8 8 0 8 12 103 11 123 -2 8 -4 9 -3 5 4 -4
7 -3 12 3 12 5 0 13 -5 16 -10 4 -6 10 -8 15 -5 5 3 73 5 152 5 79 0 248 0
375 -1 128 0 238 3 244 7 8 5 9 3 4 -6 -6 -10 -4 -12 11 -6 17 7 327 9 384 2
14 -1 33 2 43 6 10 5 17 5 17 -1 0 -11 71 -8 90 4 9 6 11 4 5 -5 -6 -9 -4 -11
4 -5 7 4 34 9 59 11 25 2 60 10 77 18 29 14 103 76 90 76 -3 0 2 12 12 27 9
14 18 31 20 37 1 6 6 27 10 46 11 45 7 4642 -4 4693 -4 21 -7 -1008 -5 -2285z"/>
<path d="M1012 7737 c-12 -7 -30 -24 -40 -37 -16 -24 -17 -153 -20 -2228 -1
-1267 2 -2217 7 -2235 5 -19 9 863 10 2171 1 1713 4 2208 13 2225 7 12 12 24
11 27 -1 3 15 17 34 30 l37 25 2797 1 c1971 0 2796 -3 2792 -10 -5 -8 -3 -8 8
0 10 7 411 10 1298 8 l1285 -2 18 -22 c10 -12 18 -17 18 -12 0 6 -11 24 -24
39 l-24 28 -4099 2 c-3274 2 -4103 0 -4121 -10z"/>
<path d="M7650 7293 c-32 -5 -120 -33 -120 -38 0 -3 18 -32 40 -66 22 -34 40
-67 40 -72 0 -6 3 -8 6 -5 3 3 -6 29 -20 57 -26 50 -26 50 -5 61 34 19 59 22
179 26 73 2 136 -2 173 -11 31 -7 57 -11 57 -8 0 3 7 0 15 -7 8 -7 15 -9 15
-6 0 4 10 1 23 -6 12 -7 27 -12 32 -13 20 -2 65 -28 65 -38 0 -6 3 -7 6 -4 9
9 80 -46 138 -107 26 -28 39 -37 28 -21 -52 77 -171 168 -277 212 -97 41 -290
64 -395 46z"/>
<path d="M6918 7275 c-184 -46 -304 -180 -331 -369 -12 -86 -1 -197 27 -256 9
-19 14 -26 10 -15 -32 110 -32 249 -1 325 25 60 100 168 123 177 8 3 27 17 43
32 30 28 141 71 206 79 189 24 349 -25 425 -130 17 -22 30 -36 30 -30 0 6 -23
36 -51 66 -37 41 -73 67 -128 93 -71 35 -83 37 -186 40 -72 2 -130 -2 -167
-12z"/>
<path d="M1797 7253 c-16 -4 -17 -23 -15 -251 l3 -247 25 -2 c14 -1 18 0 8 3
-16 5 -18 23 -18 202 0 108 3 206 6 218 7 27 73 46 155 43 80 -3 97 -9 139
-51 l34 -33 -18 30 c-26 45 -75 74 -142 85 -60 10 -145 11 -177 3z"/>
<path d="M2438 7043 c5 -97 -9 -166 -51 -246 -73 -139 -207 -197 -461 -201
l-141 -2 -3 -140 c-3 -124 -1 -143 15 -160 10 -11 15 -15 11 -10 -5 6 -8 62
-8 126 0 151 -5 147 165 154 143 5 208 17 272 46 24 11 48 20 53 20 6 0 8 5 5
10 -3 6 0 10 8 10 32 0 115 117 124 175 3 17 8 35 13 40 10 13 11 214 1 240
-4 11 -6 -16 -3 -62z"/>
<path d="M5482 6963 l-2 -73 -120 0 -120 0 0 -247 c0 -237 7 -314 31 -329 8
-4 7 0 0 14 -7 13 -11 101 -11 246 0 183 3 227 15 239 8 8 12 17 10 19 -3 3 1
5 8 6 6 0 30 5 52 11 22 6 59 11 81 11 57 0 66 14 61 102 l-3 73 -2 -72z"/>
<path d="M3217 6963 c-4 -3 -7 -46 -7 -94 0 -48 -3 -90 -7 -92 -5 -3 -37 -6
-72 -8 l-64 -4 -11 32 c-6 17 -14 35 -18 38 -14 15 -77 -7 -122 -41 l-46 -35
0 -233 c0 -207 2 -235 17 -247 14 -12 16 -12 8 0 -5 8 -8 103 -6 210 2 177 4
199 23 233 12 20 26 39 32 42 6 2 28 11 48 20 37 16 38 15 62 -10 20 -23 33
-27 80 -28 77 -1 83 8 89 127 2 53 3 97 2 97 -1 0 -5 -3 -8 -7z"/>
<path d="M4280 6851 c-25 -9 -55 -24 -68 -32 l-22 -14 2 -264 c3 -225 5 -265
18 -269 12 -4 13 -2 3 10 -17 20 -16 385 0 447 9 32 21 50 47 67 59 39 163 54
210 31 37 -19 39 -6 4 22 -34 27 -129 28 -194 2z"/>
<path d="M8661 6717 c-1 -5 8 -43 18 -85 23 -92 48 -226 56 -302 3 -30 10 -91
16 -135 18 -129 16 -456 -3 -550 -58 -283 -212 -478 -433 -548 -99 -31 -242
-31 -304 0 -25 12 -47 21 -49 18 -6 -5 100 -65 118 -66 8 0 24 -2 35 -5 25 -5
132 -5 165 0 82 13 231 92 279 150 9 10 30 35 48 54 17 20 38 47 45 61 7 14
24 46 39 71 14 25 26 47 27 50 0 3 3 12 6 20 4 13 15 56 21 85 2 6 11 57 20
114 32 187 8 592 -50 871 -23 109 -52 215 -54 197z"/>
<path d="M8089 6579 c-33 -35 -37 -74 -14 -119 16 -31 61 -60 92 -60 31 0 79
36 92 69 17 39 7 76 -29 112 -41 42 -101 41 -141 -2z"/>
<path d="M7585 6392 c-1 -65 -6 -88 -32 -145 -41 -86 -113 -158 -190 -188 -79
-31 -243 -38 -334 -15 -127 33 -264 113 -358 210 l-44 45 -31 -21 c-56 -39
-187 -172 -231 -233 -50 -70 -95 -158 -119 -233 -20 -59 -37 -72 -95 -72 -49
0 -54 -15 -8 -24 59 -10 92 5 113 53 9 20 22 48 30 64 9 15 12 27 9 27 -4 0 3
13 14 29 12 16 21 32 21 36 0 12 69 110 100 143 17 17 29 32 26 32 -8 0 37 43
85 80 24 19 45 38 47 42 2 4 19 10 38 14 29 5 39 1 69 -24 89 -79 221 -153
341 -192 64 -20 229 -31 279 -17 11 3 34 8 50 13 17 4 42 15 57 25 14 11 28
19 31 19 5 0 85 79 87 85 0 3 13 31 27 62 29 62 43 196 26 240 -5 15 -8 -3 -8
-55z"/>
<path d="M1978 6163 l-3 -58 -300 -5 c-239 -4 -293 -7 -264 -16 55 -17 559
-11 570 7 9 14 13 129 4 129 -2 0 -5 -26 -7 -57z"/>
<path d="M8341 5888 c-1 -3 6 -35 15 -70 22 -84 15 -240 -15 -318 -25 -66 -98
-153 -152 -180 -21 -11 -61 -25 -89 -31 -39 -8 -50 -15 -46 -26 3 -8 6 -16 6
-18 0 -3 10 -10 23 -16 19 -10 20 -10 10 2 -9 11 -7 14 13 15 36 3 125 49 162
85 46 45 88 125 103 194 19 92 15 239 -9 310 -11 33 -20 57 -21 53z"/>
<path d="M7790 5792 c-40 -20 -65 -64 -80 -141 -6 -32 -10 -246 -10 -517 0
-254 -3 -469 -6 -478 -5 -13 -22 -16 -81 -16 -76 0 -90 -11 -31 -25 45 -10
100 -6 115 8 9 9 13 133 16 492 3 346 7 487 16 503 6 12 9 22 6 22 -13 0 28
75 53 97 36 31 79 41 187 43 50 1 108 3 130 4 25 0 45 -5 52 -14 13 -16 17 -3
7 24 -10 25 -324 23 -374 -2z"/>
<path d="M1764 5737 c-3 -8 -4 -115 -2 -238 3 -215 4 -224 23 -227 15 -2 16
-1 7 6 -11 7 -13 49 -10 200 3 181 4 193 25 213 18 19 32 22 93 21 91 -1 133
-15 166 -55 l26 -32 -20 35 c-34 59 -91 84 -204 88 -80 4 -99 2 -104 -11z"/>
<path d="M2383 5459 c-12 -94 -37 -154 -84 -213 -75 -90 -188 -126 -398 -126
l-136 0 2 -137 c1 -76 3 -146 3 -155 0 -10 10 -22 23 -28 20 -10 21 -10 4 3
-16 13 -18 30 -16 124 1 59 5 115 10 124 13 26 36 31 152 35 133 5 235 26 292
60 53 30 109 91 129 137 20 48 38 165 34 217 -3 40 -4 35 -15 -41z"/>
<path d="M4698 5460 l-3 -55 -117 -3 -118 -3 0 -285 c0 -280 4 -324 33 -324 7
0 6 4 -3 10 -13 8 -15 44 -15 222 -1 294 0 305 37 328 21 12 51 18 101 19 85
1 108 18 105 82 -2 62 -17 69 -20 9z"/>
<path d="M3140 5438 c0 -37 -5 -90 -11 -118 l-11 -50 -41 0 c-23 0 -52 -3 -64
-6 -24 -6 -26 -3 -37 49 -10 43 -61 32 -143 -30 l-33 -24 0 -219 c0 -185 2
-221 16 -234 22 -23 27 -20 10 7 -12 17 -14 57 -13 197 3 193 10 220 69 255
53 31 82 34 93 11 7 -13 22 -22 43 -24 17 -2 32 -7 32 -12 0 -9 32 -7 67 4 22
7 23 9 37 187 2 25 0 52 -5 60 -6 9 -9 -10 -9 -53z"/>
<path d="M3577 5405 c-106 -27 -157 -132 -157 -320 0 -93 14 -173 35 -201 10
-14 10 -7 -2 26 -24 65 -23 243 0 288 10 17 15 32 11 32 -9 0 38 74 53 83 7 4
23 18 36 30 27 26 35 28 105 28 57 0 75 -9 104 -56 21 -35 24 -26 4 13 -37 70
-105 98 -189 77z"/>
<path d="M6661 5178 c-1 -53 -4 -103 -7 -112 -5 -14 -40 -16 -281 -16 l-276 0
6 -54 c3 -29 15 -72 26 -95 28 -55 35 -52 10 4 -22 49 -18 90 10 104 14 8 218
17 246 12 28 -6 229 1 249 9 22 8 25 17 31 82 3 40 2 93 -3 118 -9 40 -10 35
-11 -52z"/>
<path d="M4056 5217 c12 -89 5 -222 -17 -292 -62 -202 -201 -297 -433 -296
-140 1 -222 29 -310 109 l-51 46 50 -53 c46 -50 139 -104 199 -117 12 -3 32
-7 46 -11 37 -8 179 -7 220 1 55 11 139 55 182 94 35 32 94 121 98 147 1 6 6
17 10 25 25 46 32 294 11 355 -11 29 -11 29 -5 -8z"/>
<path d="M7424 4922 c0 -134 -83 -248 -207 -284 -48 -13 -225 -16 -342 -6 -75
7 -79 4 -20 -18 70 -25 254 -33 339 -14 22 5 44 7 48 4 4 -3 8 0 8 5 0 6 3 10
8 9 20 -6 97 48 125 88 18 25 32 49 33 52 0 4 6 25 12 47 13 44 15 139 3 168
-4 11 -7 -12 -7 -51z"/>
<path d="M6634 4759 c5 -22 -2 -29 -62 -62 -92 -49 -167 -67 -286 -67 -122 0
-215 25 -282 76 -25 19 -48 34 -50 31 -4 -4 55 -52 96 -79 14 -8 53 -24 88
-34 34 -10 62 -21 62 -25 0 -3 55 -5 123 -4 135 3 197 18 262 63 54 38 73 72
57 103 l-12 24 4 -26z"/>
<path d="M1932 4698 l-2 -58 -277 0 c-223 -1 -274 -3 -258 -13 35 -21 519 -27
540 -6 3 4 4 35 2 70 l-3 64 -2 -57z"/>
<path d="M4610 4680 l0 -40 -245 0 c-232 0 -302 -9 -203 -25 70 -12 413 -9
437 4 17 9 21 21 21 56 0 25 -2 45 -5 45 -3 0 -5 -18 -5 -40z"/>
<path d="M6885 4281 c-42 -19 -94 -71 -119 -119 -43 -83 -47 -296 -8 -385 11
-26 23 -47 27 -47 3 0 -1 13 -9 29 -23 43 -37 148 -30 219 4 34 10 62 13 62 4
0 8 12 9 26 3 35 47 108 85 140 39 33 70 45 132 51 27 2 51 6 53 8 2 2 21 -3
43 -10 40 -15 42 -15 59 -15 5 0 23 -19 40 -42 37 -50 40 -38 4 16 -53 78
-202 111 -299 67z"/>
<path d="M8678 4158 c-3 -51 -4 -53 -34 -56 l-30 -3 0 -87 c1 -115 -19 -170
-81 -217 -61 -47 -128 -65 -235 -65 -86 0 -89 -1 -100 -26 -11 -22 -10 -28 7
-40 10 -8 26 -14 34 -14 14 0 14 1 1 10 -30 19 7 31 111 36 130 7 186 30 234
99 34 47 42 79 50 199 3 48 9 64 30 83 21 20 25 33 25 78 0 70 -8 71 -12 3z"/>
<path d="M8005 4123 c-3 -27 -7 -55 -8 -63 -2 -11 -17 -15 -57 -16 -84 -2 -84
-2 -134 -39 l-46 -36 0 -164 c0 -91 3 -165 8 -165 4 0 6 51 5 112 -3 139 -1
149 41 193 42 43 78 58 132 56 24 -2 45 3 52 12 12 14 29 157 19 157 -3 0 -9
-21 -12 -47z"/>
<path d="M7420 4148 c0 -2 7 -28 15 -58 55 -206 -53 -445 -243 -537 -69 -33
-87 -38 -173 -41 -152 -7 -258 27 -357 112 l-47 40 44 -47 c86 -90 216 -139
364 -139 107 1 115 2 183 34 97 46 215 185 239 283 14 60 15 72 16 160 0 79
-22 195 -36 195 -3 0 -5 -1 -5 -2z"/>
<path d="M8665 3483 c16 -59 -42 -156 -116 -194 -121 -61 -333 -64 -451 -6
-26 13 -43 18 -38 12 17 -21 122 -63 175 -71 193 -28 368 19 421 114 26 45 32
124 13 152 -8 12 -9 10 -4 -7z"/>
</g>
</svg>